<svg xmlns="http://www.w3.org/2000/svg" viewBox="0 0 608.58 60.84"><defs><style>.cls-1{fill:#f50;}.cls-2{fill:#7640ff;}.cls-3{fill:#aa6eff;}.cls-4{fill:#ffb42e;}.cls-5{fill:none;stroke:#f50;stroke-linecap:round;stroke-miterlimit:10;stroke-width:2px;}</style></defs><title>Logo-longueur</title><g id="Calque_2" data-name="Calque 2"><g id="Calque_1-2" data-name="Calque 1"><path class="cls-1" d="M39,18.75H24.35V56.26H14.61V18.75H0V10.2H39Z"/><path class="cls-1" d="M115.36,10.66c2-.35,4.17-.63,6.58-.83s4.83-.29,7.24-.29a49.4,49.4,0,0,1,7.43.56,19.68,19.68,0,0,1,6.75,2.23,13.63,13.63,0,0,1,4.9,4.68,14.59,14.59,0,0,1,1.91,7.93,15.53,15.53,0,0,1-1.64,7.4,14.14,14.14,0,0,1-4.38,5,19.05,19.05,0,0,1-6.22,2.8,29.09,29.09,0,0,1-7.17.88h-1.12L128,41c-.59,0-1.15-.05-1.68-.1s-.92-.09-1.18-.13V56.26h-9.74Zm14.48,7.43c-.93,0-1.81,0-2.67.07a11,11,0,0,0-2.07.26V32.11a7.15,7.15,0,0,0,.85.13c.4,0,.82.08,1.25.1l1.22.07.89,0a29,29,0,0,0,3.82-.26,9.35,9.35,0,0,0,3.39-1.12,6.89,6.89,0,0,0,2.4-2.34,7.51,7.51,0,0,0,.92-4,6,6,0,0,0-.86-3.39,5.89,5.89,0,0,0-2.27-2,10.2,10.2,0,0,0-3.22-1A24.81,24.81,0,0,0,129.84,18.09Z"/><path class="cls-1" d="M224.27,43.63a3.73,3.73,0,0,0-1.71-3.23,20.72,20.72,0,0,0-4.25-2.17q-2.53-1-5.49-2a23.86,23.86,0,0,1-5.5-2.64,14.8,14.8,0,0,1-4.24-4.14A11.34,11.34,0,0,1,201.37,23a14.07,14.07,0,0,1,1.21-6A11.45,11.45,0,0,1,206,12.66a15.33,15.33,0,0,1,5.33-2.53,26,26,0,0,1,6.87-.86,43.81,43.81,0,0,1,8.26.76,22.22,22.22,0,0,1,6.42,2.14l-3.09,8.16a16.11,16.11,0,0,0-2-.95,18.25,18.25,0,0,0-2.8-.86c-1.05-.24-2.17-.44-3.35-.59A27.17,27.17,0,0,0,218,17.7a9.44,9.44,0,0,0-5.1,1.15A3.59,3.59,0,0,0,211.11,22a3.81,3.81,0,0,0,1.71,3.26,20.59,20.59,0,0,0,4.24,2.24q2.53,1,5.5,2a25.73,25.73,0,0,1,5.49,2.63,14.91,14.91,0,0,1,4.25,4A10.61,10.61,0,0,1,234,42.51a15.18,15.18,0,0,1-1.32,6.58A12.21,12.21,0,0,1,229,53.66a16,16,0,0,1-5.75,2.67,29.91,29.91,0,0,1-7.38.85,43.52,43.52,0,0,1-5.1-.29c-1.6-.2-3.08-.44-4.44-.73a34.77,34.77,0,0,1-3.58-.92,18.25,18.25,0,0,1-2.47-1l3.22-8.23a15.17,15.17,0,0,0,2,.86c.86.3,1.81.6,2.86.88a28.93,28.93,0,0,0,3.39.7,26.13,26.13,0,0,0,3.65.26A14.07,14.07,0,0,0,222,47.51,4.14,4.14,0,0,0,224.27,43.63Z"/><path class="cls-1" d="M253.68,10.2h29.68v8.55H263.42v10h18.1v8.56h-18.1v10.4h20.27v8.55h-30Z"/><path class="cls-1" d="M304.09,10.66c1.05-.18,2.21-.34,3.46-.5s2.51-.27,3.78-.36,2.51-.15,3.72-.2,2.31-.06,3.32-.06a40.36,40.36,0,0,1,6.88.59,20,20,0,0,1,6.05,2,11.77,11.77,0,0,1,4.31,4,11.42,11.42,0,0,1,1.65,6.35,14.88,14.88,0,0,1-2.8,9.31,13.86,13.86,0,0,1-7.73,5l3.49,2,11.51,17.44H330.41L319,38.43l-5.13-.79V56.26h-9.74ZM319,18.09c-1,0-2,0-2.93,0a11,11,0,0,0-2.27.23v12.7H318a11.8,11.8,0,0,0,6.54-1.58c1.6-1.06,2.41-2.88,2.41-5.46a5.18,5.18,0,0,0-2-4.41A9.74,9.74,0,0,0,319,18.09Z"/><path class="cls-1" d="M373.19,36.78l1.31,7.83h.33l1.45-7.89,9.61-26.52h10.26L377.53,56.59h-7L351.8,10.2h11.32Z"/><path class="cls-1" d="M412.94,10.2h29.67v8.55H422.67v10h18.1v8.56h-18.1v10.4h20.27v8.55h-30Z"/><path class="cls-1" d="M490.52,10.2h9.21V39.74a21.23,21.23,0,0,1-1.28,7.77,13.93,13.93,0,0,1-3.62,5.39A14.8,14.8,0,0,1,489.24,56a23.78,23.78,0,0,1-7.14,1q-9.28,0-14.15-4t-4.87-12.14V10.2h9.74V39.08c0,3.52.77,6,2.3,7.34s3.82,2.08,6.85,2.08,5-.74,6.44-2.21,2.11-3.87,2.11-7.21Z"/><path class="cls-1" d="M521.19,10.66c1-.18,2.2-.34,3.45-.5s2.51-.27,3.78-.36,2.51-.15,3.72-.2,2.32-.06,3.33-.06a40.33,40.33,0,0,1,6.87.59,20,20,0,0,1,6.06,2,11.85,11.85,0,0,1,4.31,4,11.5,11.5,0,0,1,1.64,6.35,14.82,14.82,0,0,1-2.8,9.31,13.83,13.83,0,0,1-7.73,5l3.49,2,11.52,17.44H547.51L536.06,38.43l-5.14-.79V56.26h-9.73Zm14.93,7.43c-1,0-2,0-2.92,0a11,11,0,0,0-2.28.23v12.7h4.15a11.84,11.84,0,0,0,6.55-1.58Q544,27.89,544,24a5.15,5.15,0,0,0-2-4.41A9.7,9.7,0,0,0,536.12,18.09Z"/><path class="cls-1" d="M598.84,43.63a3.73,3.73,0,0,0-1.71-3.23,21,21,0,0,0-4.25-2.17q-2.53-1-5.49-2a23.86,23.86,0,0,1-5.5-2.64,14.8,14.8,0,0,1-4.24-4.14A11.34,11.34,0,0,1,575.94,23a14.07,14.07,0,0,1,1.21-6,11.35,11.35,0,0,1,3.43-4.28,15.24,15.24,0,0,1,5.33-2.53,26,26,0,0,1,6.87-.86A43.81,43.81,0,0,1,601,10a22.22,22.22,0,0,1,6.42,2.14l-3.1,8.16a15.26,15.26,0,0,0-2-.95,18.61,18.61,0,0,0-2.8-.86c-1-.24-2.17-.44-3.36-.59a27,27,0,0,0-3.62-.23,9.49,9.49,0,0,0-5.1,1.15,3.6,3.6,0,0,0-1.8,3.19,3.78,3.78,0,0,0,1.71,3.26,20.59,20.59,0,0,0,4.24,2.24q2.54,1,5.5,2a25.73,25.73,0,0,1,5.49,2.63,14.91,14.91,0,0,1,4.25,4,10.61,10.61,0,0,1,1.71,6.25,15.18,15.18,0,0,1-1.32,6.58,12.21,12.21,0,0,1-3.72,4.57,16,16,0,0,1-5.76,2.67,29.77,29.77,0,0,1-7.37.85,43.27,43.27,0,0,1-5.1-.29c-1.6-.2-3.08-.44-4.44-.73a35.7,35.7,0,0,1-3.59-.92,18.57,18.57,0,0,1-2.46-1L578,46.06a15.17,15.17,0,0,0,2,.86c.85.3,1.81.6,2.86.88a28.51,28.51,0,0,0,3.39.7,26.13,26.13,0,0,0,3.65.26,14.07,14.07,0,0,0,6.62-1.25A4.14,4.14,0,0,0,598.84,43.63Z"/><path class="cls-2" d="M88.93,19.07,74,34,59.1,19.06,47.35,30.81a26.85,26.85,0,0,1,53.33,0Z"/><path class="cls-3" d="M93,53A26.85,26.85,0,0,1,47.35,37.16L59.1,48.9,74,34,88.94,48.9l11.74-11.74A26.66,26.66,0,0,1,93,53Z"/><path class="cls-2" d="M55,53a26.85,26.85,0,0,0,45.65-15.81L88.94,48.9,74,34,59.1,48.9,47.35,37.16A26.72,26.72,0,0,0,55,53Z"/><rect class="cls-1" x="69.17" y="42.26" width="9.7" height="9.7" transform="translate(54.99 -38.54) rotate(45)"/><polygon class="cls-4" points="67.16 47.11 74.02 43.05 80.87 47.11 74.02 40.26 67.16 47.11"/><polygon class="cls-4" points="80.87 47.11 74.02 51.18 67.16 47.11 74.02 53.97 80.87 47.11"/><path class="cls-1" d="M68,32.06,61.2,25.22a2.78,2.78,0,0,0-3.92,0L50.44,32a2.78,2.78,0,0,0,0,3.92l6.78,6.84a2.78,2.78,0,0,0,3.92,0L68,36A2.77,2.77,0,0,0,68,32.06Zm-4.07,3.32-3.38-.07-.07,3.38-2.71-.06.07-3.38-3.38-.08.06-2.71,3.38.08L58,29.16l2.71.06-.08,3.38,3.38.07Z"/><path class="cls-1" d="M97.72,32l-6.83-6.79a2.77,2.77,0,0,0-3.92,0l-6.8,6.83a2.76,2.76,0,0,0,0,3.91L87,42.76a2.78,2.78,0,0,0,3.92,0l6.8-6.83A2.78,2.78,0,0,0,97.72,32ZM85.38,36.5a2.63,2.63,0,1,1,2.68-2.59A2.63,2.63,0,0,1,85.38,36.5Zm7.06.11A2.63,2.63,0,1,1,95.11,34,2.62,2.62,0,0,1,92.44,36.61Z"/><path class="cls-1" d="M107.1,26.07V39.72a3.36,3.36,0,0,1-3.35,3.35h-2.2a28.94,28.94,0,0,0-.8-20.34h.66a28.78,28.78,0,0,0-54.78,0h.66a28.94,28.94,0,0,0-.8,20.34h-2.2a3.37,3.37,0,0,1-3.36-3.35V26.07a3.35,3.35,0,0,1,2.76-3.29,31.57,31.57,0,0,1,60.65,0A3.36,3.36,0,0,1,107.1,26.07Z"/><path class="cls-5" d="M103,42.49,100,47.36a11.27,11.27,0,0,1-9.55,5.29H83.2"/><rect class="cls-4" x="81.43" y="50.62" width="6.17" height="4.05" rx="1"/><path class="cls-1" d="M41.74,22.81H44a1,1,0,0,1,1,1V42.07a1,1,0,0,1-1,1H41.74a2.35,2.35,0,0,1-2.35-2.35V25.16a2.35,2.35,0,0,1,2.35-2.35Z"/><path class="cls-1" d="M105.36,22.8h2.28a1,1,0,0,1,1,1V42.07a1,1,0,0,1-1,1h-2.28A2.35,2.35,0,0,1,103,40.72V25.15a2.35,2.35,0,0,1,2.35-2.35Z" transform="translate(211.66 65.87) rotate(180)"/><path class="cls-4" d="M74,34a74,74,0,0,1,6-7.83c2.12-2.47,4.34-4.85,6.63-7.15s4.68-4.52,7.15-6.64a74.42,74.42,0,0,1,7.84-5.95,74.42,74.42,0,0,1-6,7.84Q92.46,18,89,21.4c-2.3,2.29-4.68,4.51-7.15,6.63A74,74,0,0,1,74,34Z"/><path class="cls-4" d="M74,34A73.08,73.08,0,0,1,66.18,28Q62.47,24.85,59,21.39t-6.64-7.14a74.42,74.42,0,0,1-6-7.84,72.1,72.1,0,0,1,7.84,5.95Q58,15.54,61.43,19c2.29,2.3,4.51,4.68,6.63,7.15A74.38,74.38,0,0,1,74,34Z"/></g></g></svg>